<svg width="43" height="33" viewBox="0 0 43 33" fill="none" xmlns="http://www.w3.org/2000/svg">
<path d="M3.57617 11.6875H20.597M10.7428 22.6875H14.3262M18.8053 22.6875H25.972" stroke="black" stroke-width="1.5" stroke-miterlimit="10" stroke-linecap="round" stroke-linejoin="round"/>
<path d="M39.4095 16.5412V22.1513C39.4095 26.9775 37.8149 28.1875 31.4545 28.1875H11.5312C5.17075 28.1875 3.57617 26.9775 3.57617 22.1513V10.8487C3.57617 6.0225 5.17075 4.8125 11.5312 4.8125H25.972" stroke="black" stroke-width="1.5" stroke-linecap="round" stroke-linejoin="round"/>
<path d="M34.178 5.6788L27.5309 10.7801C27.2801 10.9726 27.0292 11.3576 26.9755 11.6326L26.6172 13.5851C26.4917 14.2863 27.1367 14.7813 28.0505 14.6851L30.5947 14.4101C30.953 14.3688 31.4547 14.1763 31.7055 13.9838L38.3526 8.88255C39.4992 8.00255 40.0367 6.98505 38.3526 5.69255C36.6505 4.3863 35.3247 4.7988 34.178 5.6788V5.6788Z" stroke="black" stroke-width="1.5" stroke-miterlimit="10" stroke-linecap="round" stroke-linejoin="round"/>
<path d="M33.228 6.40747C33.8014 7.96122 35.378 9.17122 37.3847 9.59747" stroke="black" stroke-width="1.5" stroke-miterlimit="10" stroke-linecap="round" stroke-linejoin="round"/>
</svg>
